<svg xmlns="http://www.w3.org/2000/svg" style="display: none;">
  <defs>
    <symbol id="send" viewBox="0 0 24 24">
      <path d="m2 21 21-9L2 3v7l15 2-15 2v7Z"/>
    </symbol>
    <symbol id="arrow-right" viewBox="0 0 24 24">
      <path d="m14.2 4.8 6.5 6.5.7.7-.7.7-6.5 6.5-1.4-1.4 4.8-4.8H3v-2h14.6l-4.8-4.8 1.4-1.4Z"/>
    </symbol>
    <symbol id="chevron-right" viewBox="0 0 24 24">
      <path d="M13.6 12 7.8 6.2l1.4-1.4 6.5 6.5.7.7-.7.7-6.5 6.5-1.4-1.4 5.8-5.8Z"/>
    </symbol>
    <symbol id="instagram" viewBox="0 0 24 24">
      <path d="M15.233 5.488c-.843-.038-1.097-.046-3.233-.046s-2.389.008-3.232.046c-2.17.099-3.181 1.127-3.279 3.279-.039.844-.048 1.097-.048 3.233s.009 2.389.047 3.233c.099 2.148 1.106 3.18 3.279 3.279.843.038 1.097.047 3.233.047 2.137 0 2.39-.008 3.233-.046 2.17-.099 3.18-1.129 3.279-3.279.038-.844.046-1.097.046-3.233s-.008-2.389-.046-3.232c-.099-2.153-1.111-3.182-3.279-3.281zm-3.233 10.62c-2.269 0-4.108-1.839-4.108-4.108 0-2.269 1.84-4.108 4.108-4.108s4.108 1.839 4.108 4.108c0 2.269-1.839 4.108-4.108 4.108zm4.271-7.418c-.53 0-.96-.43-.96-.96s.43-.96.96-.96.96.43.96.96-.43.96-.96.96zm-1.604 3.31c0 1.473-1.194 2.667-2.667 2.667s-2.667-1.194-2.667-2.667c0-1.473 1.194-2.667 2.667-2.667s2.667 1.194 2.667 2.667zm4.333-12h-14c-2.761 0-5 2.239-5 5v14c0 2.761 2.239 5 5 5h14c2.762 0 5-2.239 5-5v-14c0-2.761-2.238-5-5-5zm.952 15.298c-.132 2.909-1.751 4.521-4.653 4.654-.854.039-1.126.048-3.299.048s-2.444-.009-3.298-.048c-2.908-.133-4.52-1.748-4.654-4.654-.039-.853-.048-1.125-.048-3.298 0-2.172.009-2.445.048-3.298.134-2.908 1.748-4.521 4.654-4.653.854-.04 1.125-.049 3.298-.049s2.445.009 3.299.048c2.908.133 4.523 1.751 4.653 4.653.039.854.048 1.127.048 3.299 0 2.173-.009 2.445-.048 3.298z"/>

    </symbol>
    
    <symbol id="github" viewBox="0 0 24 24">
      <path d="M12 0c-6.627 0-12 5.373-12 12s5.373 12 12 12 12-5.373 12-12-5.373-12-12-12zm2.218 18.616c-.354.069-.468-.149-.468-.336v-1.921c0-.653-.229-1.079-.481-1.296 1.56-.173 3.198-.765 3.198-3.454 0-.765-.273-1.389-.721-1.879.072-.177.312-.889-.069-1.853 0 0-.587-.188-1.923.717-.561-.154-1.159-.231-1.754-.234-.595.003-1.193.08-1.753.235-1.337-.905-1.925-.717-1.925-.717-.379.964-.14 1.676-.067 1.852-.448.49-.722 1.114-.722 1.879 0 2.682 1.634 3.282 3.189 3.459-.2.175-.381.483-.444.936-.4.179-1.413.488-2.037-.582 0 0-.37-.672-1.073-.722 0 0-.683-.009-.048.426 0 0 .46.215.777 1.024 0 0 .405 1.25 2.353.826v1.303c0 .185-.113.402-.462.337-2.782-.925-4.788-3.549-4.788-6.641 0-3.867 3.135-7 7-7s7 3.133 7 7c0 3.091-2.003 5.715-4.782 6.641z"/>

    </symbol>

    <symbol id="menu" viewBox="0 0 24 24">
      <path d="M22 6H2V4h20v2ZM2 13h16v-2H2v2Zm0 7h20v-2H2v2Z"/>
    </symbol>

    <symbol id="linkedin" viewBox="0 0 24 24">
      <path fill-rule="evenodd" d="M19 0h-14c-2.761 0-5 2.239-5 5v14c0 2.761 2.239 5 5 5h14c2.762 0 5-2.239 5-5v-14c0-2.761-2.238-5-5-5zm-11 19h-3v-11h3v11zm-1.5-12.268c-.966 0-1.75-.79-1.75-1.764s.784-1.764 1.75-1.764 1.75.79 1.75 1.764-.783 1.764-1.75 1.764zm13.5 12.268h-3v-5.604c0-3.368-4-3.113-4 0v5.604h-3v-11h3v1.765c1.396-2.586 7-2.777 7 2.476v6.759z"/>
     


    </symbol>

    <symbol id="copy" viewBox="0 0 24 24">
      <path d="M3 2h12v4H7v10H3V2Zm6 20V8h12v11l-3 3H9Z"/>
    </symbol>

    <symbol id="error" viewBox="0 0 24 24">
      <path d="M19.7 19H4.3L12 5l7.7 14ZM11.1 2.5l-9.4 17 1 1.5h18.7l.9-1.5-9.4-17H11ZM11 14v-4h2v4h-2Zm0 3v-2h2v2h-2Z"/>
    </symbol>

    <symbol id="arrow-left" viewBox="0 0 24 24">
      <path d="m9.8 19.2-6.5-6.5-.7-.7.7-.7 6.5-6.5 1.4 1.4L6.4 11H21v2H6.4l4.8 4.8-1.4 1.4Z"/>
    </symbol>

    <symbol id="check" viewBox="0 0 24 24">
      <path d="m20.2 7.2-10 10-.7.7-.7-.7-5-5 1.4-1.4L9.5 15l9.3-9.3 1.4 1.4Z"/>
    </symbol>

    <symbol id="link" viewBox="0 0 24 24">
      <path d="M9 4 8 5v2h2V6h10v7H10v-2H8v3l1 1h12l1-1V5l-1-1H9Zm2 4H3L2 9v9l1 1h12l1-1v-2h-2v1H4v-7h10v2h2V9l-1-1h-4Z"/>
    </symbol>

    <symbol id="close" viewBox="0 0 24 24">
      <path d="M19 6.4 17.6 5 12 10.6 6.4 5 5 6.4l5.6 5.6L5 17.6 6.4 19l5.6-5.6 5.6 5.6 1.4-1.4-5.6-5.6L19 6.4Z"/>
    </symbol>
    
    <symbol id="pause" viewBox="0 0 24 24">
      <path d="M6 19h4V5H6v14Zm8-14v14h4V5h-4Z"/>
    </symbol>
    <symbol id="play" viewBox="0 0 24 24">
      <path d="M8 5v14l11-7L8 5Z"/>
    </symbol>
  </defs>
</svg>